<?xml version="1.0" encoding="utf-8"?>
<!-- Generator: Adobe Illustrator 19.1.0, SVG Export Plug-In . SVG Version: 6.00 Build 0)  -->
<svg version="1.1" id="Layer_1" xmlns="http://www.w3.org/2000/svg" xmlns:xlink="http://www.w3.org/1999/xlink" x="0px" y="0px"
	 viewBox="0 0 60.5 72" style="enable-background:new 0 0 60.5 72;" xml:space="preserve">
<style type="text/css">
	.st0{fill:#FFFFFF;}
</style>
<g>
	<path class="st0" d="M30.4,0L1.1,17.3c-0.1,0.1-0.2,0.3-0.4,0.4c-0.1,0.1-0.3,0.2-0.3,0.4C0.1,18.4,0,18.9,0,19.4v33.5
		c0,0.9,0.5,1.8,1.3,2.3L29,71.6c0,0,0,0,0,0l0,0c0.4,0.2,0.9,0.4,1.3,0.4c0.5,0,0.9-0.1,1.3-0.4c0,0,0,0,0,0c0,0,0,0,0,0l27.7-16.5
		c0.5-0.3,0.9-0.8,1.1-1.4V17.7L30.4,0z M30.4,32.7l-6.3-3.7L8,19.4L30.4,6.1l22.4,13.3l-16,9.5L30.4,32.7z M55.3,51.3L33.1,64.6
		V37.4l20.3-12.1l2-1.2V51.3z"/>
</g>
</svg>
