<?xml version="1.0" encoding="utf-8"?>
<!-- Generator: Adobe Illustrator 19.1.0, SVG Export Plug-In . SVG Version: 6.00 Build 0)  -->
<svg version="1.1" id="Layer_1" xmlns="http://www.w3.org/2000/svg" xmlns:xlink="http://www.w3.org/1999/xlink" x="0px" y="0px"
	 viewBox="-47 170.9 222.3 255.2" style="enable-background:new -47 170.9 222.3 255.2;" xml:space="preserve">
<style type="text/css">
	.st0{fill:#00648D;}
</style>
<g>
	<path class="st0" d="M43.2,271.3v143.3c0,6.4,5.2,11.5,11.5,11.5h19c6.4,0,11.6-5.2,11.6-11.6v-88.7l0,0v-54.6
		c0.4-0.1,0.9-0.3,1.3-0.4H42C42.3,271.1,42.7,271.2,43.2,271.3z M54.8,325.9v-54.5l0,0h18.9v143.2H54.8V325.9z"/>
	<path class="st0" d="M96.4,256.6v-0.5h69.3c3.3,0,6.3-1.6,8-4.4c1.8-2.7,2.1-6.1,0.8-9.1c-1.2-2.7-3.1-5.4-5.6-7.9
		c-11.8-11.8-38.7-20.8-72.5-24.4v-2.9c0-4.1-1.6-7.9-4.5-10.8c-1.9-1.9-4.2-3.2-6.7-3.9v-0.6v-9.7c0-6.4-5.2-11.5-11.5-11.5h-19
		c-6.4,0-11.6,5.2-11.6,11.6v10.2c-6.4,1.8-11.2,7.7-11.2,14.7v2.9C-1.4,213.8-38,224-46.2,242.6c-1.6,3.6-0.8,7.8,2,10.6
		c1.8,1.8,4.2,2.8,6.8,2.8h69.3v0.5c0,4.1,1.6,7.9,4.5,10.8c1.6,1.6,3.4,2.7,5.4,3.5h44.6C92.3,268.7,96.4,263.2,96.4,256.6z
		 M54.8,182.6h18.9v9.6l0,0H54.8V182.6z M84.8,244.5v12.1c0,2-1.6,3.6-3.6,3.6h-7.6H54.7h-7.5c-1,0-1.9-0.4-2.6-1.1
		c-0.7-0.7-1.1-1.6-1.1-2.6v-12.1h-0.3h-76.8c3.6-4.5,11.1-9,21.2-12.7c13.6-5,31.1-8.6,50.7-10.3l4.9-0.4h0.4v-13.5
		c0-2,1.6-3.6,3.6-3.6h7.6h18.9h7.6c1,0,1.9,0.4,2.6,1.1c0.7,0.7,1.1,1.6,1.1,2.6v13.5h0.4l4.9,0.4c33.1,2.9,60.2,11.1,70.6,21.5
		c0.5,0.5,1,1,1.4,1.5H85.5H84.8z"/>
</g>
</svg>
