<?xml version="1.0" encoding="utf-8"?>
<!-- Generator: Adobe Illustrator 19.1.0, SVG Export Plug-In . SVG Version: 6.00 Build 0)  -->
<svg version="1.1" id="Layer_1" xmlns="http://www.w3.org/2000/svg" xmlns:xlink="http://www.w3.org/1999/xlink" x="0px" y="0px"
	 viewBox="0 0 26.1 72" style="enable-background:new 0 0 26.1 72;" xml:space="preserve">
<style type="text/css">
	.st0{fill-rule:evenodd;clip-rule:evenodd;fill:#FFFFFF;}
</style>
<g>
	<path class="st0" d="M6.2,47.7c-2.6-0.5-4.4-1.5-5.1-3c-0.8-1.5-1.2-4.2-1.1-8v-8.9c-0.1-4.5,0.7-7.8,2.3-9.8
		c1.6-2,4.6-3.1,8.9-3.1c-1.6-1.1-2.9-2.3-3.8-3.4c-0.9-1.2-1.3-2.5-1.3-4.1c0-1.9,0.7-3.5,2-5c1.3-1.5,2.9-2.3,5-2.3
		c2,0.1,3.7,0.9,5,2.3c1.3,1.5,2,3.1,2,5c0,1.6-0.4,2.9-1.3,4c-0.9,1.1-2.1,2.3-3.8,3.5c4.4,0,7.3,1.1,8.9,3.1
		c1.6,2,2.3,5.3,2.3,9.8v8.9c0.1,3.8-0.3,6.5-1,8c-0.8,1.5-2.5,2.5-5.2,3V72H6.2V47.7z"/>
</g>
</svg>
