<?xml version="1.0" encoding="utf-8"?>
<!-- Generator: Adobe Illustrator 19.1.0, SVG Export Plug-In . SVG Version: 6.00 Build 0)  -->
<svg version="1.1" id="Layer_1" xmlns="http://www.w3.org/2000/svg" xmlns:xlink="http://www.w3.org/1999/xlink" x="0px" y="0px"
	 viewBox="0 0 112.9 112.9" style="enable-background:new 0 0 112.9 112.9;" xml:space="preserve">
<style type="text/css">
	.st0{fill:#196790;}
	.st1{fill:#FFFFFF;}
</style>
<g>
	<path class="st0" d="M42.9,0C19.2,0,0,19.2,0,42.9s19.2,42.9,42.9,42.9s42.9-19.2,42.9-42.9S66.5,0,42.9,0z M42.9,75.8
		C24.7,75.8,10,61,10,42.9S24.7,10,42.9,10s32.9,14.7,32.9,32.9S61,75.8,42.9,75.8z"/>
	<path class="st1" d="M42.9,10C24.7,10,10,24.7,10,42.9s14.7,32.9,32.9,32.9S75.8,61,75.8,42.9S61,10,42.9,10z M42.9,73.8
		c-17,0-30.9-13.9-30.9-30.9S25.9,12,42.9,12s30.9,13.9,30.9,30.9S59.9,73.8,42.9,73.8z"/>
</g>
<path class="st0" d="M112.9,112.9L112.9,112.9c-1.9,1.9-5.1,1.9-7.1,0L66.1,73.2c-1.9-1.9-1.9-5.1,0-7.1l0,0c1.9-1.9,5.1-1.9,7.1,0
	l39.7,39.7C114.9,107.8,114.9,111,112.9,112.9z"/>
</svg>
