<?xml version="1.0" encoding="utf-8"?>
<!-- Generator: Adobe Illustrator 19.1.0, SVG Export Plug-In . SVG Version: 6.00 Build 0)  -->
<svg version="1.1" id="Layer_1" xmlns="http://www.w3.org/2000/svg" xmlns:xlink="http://www.w3.org/1999/xlink" x="0px" y="0px"
	 viewBox="202 220.9 1000 400" style="enable-background:new 202 220.9 1000 400;" xml:space="preserve">
<style type="text/css">
	.st0{fill:#BA0E6F;}
</style>
<path class="st0" d="M202,219.9v27.4h194.6v-27.4H202z M424.2,219.9v27.4h277.4c0,0-28.3-27.4-65.9-27.4H424.2z M756,219.9v27.4
	h167.8l-10-27.4H756z M1044.1,219.9l-10,27.4h166.3v-27.4H1044.1z M202,273.1v27.4h194.6v-27.4H202z M424.2,273.2v27.3h309.6
	c0,0-3.6-21.1-9.9-27.3H424.2z M756,273.2v27.3h186.2l-9.2-27.3H756z M1024.2,273.2l-9.2,27.3h185.5v-27.3H1024.2z M257.9,326.3
	v27.4h84.3v-27.4H257.9z M480.2,326.3v27.4h84.3v-27.4H480.2z M646.5,326.3v27.4h84.3c0,0,5.4-14.5,5.4-27.4H646.5z M812,326.3v27.4
	h149.5l-10-27.4H812z M1005.9,326.3l-10,27.4h150.2v-27.4H1005.9z M257.9,379.6V407h84.3v-27.4H257.9z M480.2,379.6V407h215.3
	c0,0,18-14,23.8-27.4H480.2z M812,379.6V407h84.3v-15.2l5.4,15.2H1056l5.7-15.2V407h84.3v-27.4H987.8l-8.4,23.2l-8.4-23.2H812z
	 M257.9,432.8v27.4h84.3v-27.4H257.9z M480.2,432.8v27.4h239.1c-5.7-13.3-23.8-27.4-23.8-27.4H480.2z M812,432.8v27.4h84.3v-27.4
	H812z M911.6,432.8l10.2,27.4h115.8l9.7-27.4H911.6z M1061.8,432.8v27.4h84.3v-27.4H1061.8z M257.9,486v27.4h84.3V486H257.9z
	 M480.2,486v27.4h84.3V486H480.2z M646.5,486v27.4h89.6c0-12.9-5.4-27.4-5.4-27.4L646.5,486L646.5,486z M812,486v27.4h84.3V486H812z
	 M930.7,486l9.9,27.4h77.6l10-27.4L930.7,486L930.7,486z M1061.8,486v27.4h84.3V486H1061.8z M203.5,539.3v27.4h194.6v-27.4H203.5z
	 M424.2,539.3v27.4h299.6c6.3-6.3,9.9-27.4,9.9-27.4H424.2z M757.5,539.3v27.4h138.7v-27.4H757.5z M949.9,539.3l10.2,27.4h39.5
	l9.5-27.4H949.9z M1061.8,539.3v27.4H1202v-27.4H1061.8z M203.5,592.5v27.4h194.6v-27.4H203.5z M424.2,592.5v27.3h211.5
	c37.5,0,65.9-27.3,65.9-27.3H424.2z M757.5,592.5v27.4h138.7v-27.4H757.5z M969.1,592.5l9.8,27.3h1.7l9.9-27.3H969.1z M1061.8,592.5
	v27.4H1202v-27.4H1061.8z"/>
</svg>
