<?xml version="1.0" encoding="utf-8"?>
<!-- Generator: Adobe Illustrator 19.1.0, SVG Export Plug-In . SVG Version: 6.00 Build 0)  -->
<svg version="1.1" id="Layer_1" xmlns="http://www.w3.org/2000/svg" xmlns:xlink="http://www.w3.org/1999/xlink" x="0px" y="0px"
	 viewBox="525 -195 1126 400" style="enable-background:new 525 -195 1126 400;" xml:space="preserve">
<style type="text/css">
	.st0{fill:#372052;}
</style>
<path class="st0" d="M525-195v27.4h194.6V-195H525z M747.2-195v27.4h277.4c0,0-28.3-27.4-65.9-27.4H747.2z M1079-195v27.4h167.8
	l-10-27.4H1079z M1367.1-195l-10,27.4h166.3V-195H1367.1z M525-141.8v27.4h194.6v-27.4H525z M747.2-141.7v27.3h309.6
	c0,0-3.6-21.1-9.9-27.3H747.2z M1079-141.7v27.3h186.2l-9.2-27.3H1079z M1347.2-141.7l-9.2,27.3h185.5v-27.3H1347.2z M580.9-88.6
	v27.4h84.3v-27.4H580.9z M803.2-88.6v27.4h84.3v-27.4H803.2z M969.5-88.6v27.4h84.3c0,0,5.4-14.5,5.4-27.4H969.5z M1135-88.6v27.4
	h149.5l-10-27.4H1135z M1328.9-88.6l-10,27.4h150.2v-27.4H1328.9z M580.9-35.3v27.4h84.3v-27.4H580.9z M803.2-35.3v27.4h215.3
	c0,0,18-14,23.8-27.4H803.2z M1135-35.3v27.4h84.3v-15.2l5.4,15.2H1379l5.7-15.2v15.2h84.3v-27.4h-158.2l-8.4,23.2l-8.4-23.2H1135z
	 M580.9,17.9v27.4h84.3V17.9H580.9z M803.2,17.9v27.4h239.1c-5.7-13.3-23.8-27.4-23.8-27.4H803.2z M1135,17.9v27.4h84.3V17.9H1135z
	 M1234.6,17.9l10.2,27.4h115.8l9.7-27.4H1234.6z M1384.8,17.9v27.4h84.3V17.9H1384.8z M580.9,71.1v27.4h84.3V71.1H580.9z
	 M803.2,71.1v27.4h84.3V71.1H803.2z M969.5,71.1v27.4h89.6c0-12.9-5.4-27.4-5.4-27.4H969.5L969.5,71.1z M1135,71.1v27.4h84.3V71.1
	H1135z M1253.7,71.1l9.9,27.4h77.6l10-27.4H1253.7L1253.7,71.1z M1384.8,71.1v27.4h84.3V71.1H1384.8z M526.5,124.4v27.4h194.6v-27.4
	H526.5z M747.2,124.4v27.4h299.6c6.3-6.3,9.9-27.4,9.9-27.4H747.2z M1080.5,124.4v27.4h138.7v-27.4H1080.5z M1272.9,124.4l10.2,27.4
	h39.5l9.5-27.4H1272.9z M1384.8,124.4v27.4H1525v-27.4H1384.8z M526.5,177.6V205h194.6v-27.4H526.5z M747.2,177.6v27.3h211.5
	c37.5,0,65.9-27.3,65.9-27.3H747.2z M1080.5,177.6V205h138.7v-27.4H1080.5z M1292.1,177.6l9.8,27.3h1.7l9.9-27.3H1292.1z
	 M1384.8,177.6V205H1525v-27.4H1384.8z"/>
<g>
	<path class="st0" d="M1612.7,128.8c6.8,0,13.2,1.7,19.1,5.2c5.9,3.5,10.6,8,14,14c3.3,5.9,5.2,12.3,5.2,19c0,6.8-1.7,13.1-5.2,19
		c-3.5,5.9-8,10.6-14,14c-5.9,3.3-12.3,5.2-19,5.2s-13.1-1.7-19-5.2c-5.9-3.5-10.6-8-14-14c-3.3-5.9-5.2-12.3-5.2-19
		c0-6.8,1.7-13.2,5.2-19.1s8-10.6,14-14C1599.8,130.5,1605.9,128.8,1612.7,128.8z M1612.7,199.2c8.8,0,16.4-3.2,22.8-9.6
		c6.4-6.4,9.6-14,9.6-22.8c0-5.8-1.5-11.1-4.4-16.1c-2.9-5-6.8-9-11.8-11.8s-10.5-4.4-16.1-4.4c-9,0-16.5,3.2-22.9,9.6
		c-6.4,6.4-9.6,14-9.6,22.9c0,8.8,3.2,16.4,9.6,22.8C1596.2,196.2,1603.9,199.2,1612.7,199.2z M1633.5,187.8h-7
		c-5.3-8.5-8.7-13.5-10-15s-2.6-2.6-3.5-2.9c-0.9-0.3-2.4-0.6-4.7-0.6h-6.5V188h-5.6v-42.4h18.8c3.3,0,5.9,0.3,8,0.9
		c2.1,0.6,3.8,1.8,5.2,3.9c1.4,2.1,2,4.3,2,6.8c0,3.2-1.1,5.8-3,7.7s-5,3.2-9,3.6v0.2c2.9,1.2,5.5,3.8,8,7.6L1633.5,187.8z
		 M1602,164h12c4.4,0,7.3-0.8,8.5-2.3s1.8-3.2,1.8-4.7c0-2-0.8-3.6-2.1-5c-1.4-1.4-3.8-2-6.8-2H1602L1602,164L1602,164z"/>
</g>
</svg>
